<svg width="52" height="52" viewBox="0 0 52 52" fill="none" xmlns="http://www.w3.org/2000/svg">
<rect width="51.2609" height="51.2609" rx="11" fill="#A87574"/>
<path d="M18.1544 7.83154H33.1055C38.8012 7.83154 43.4289 12.4593 43.4289 18.1549V33.106C43.4289 35.8439 42.3413 38.4697 40.4053 40.4057C38.4692 42.3418 35.8435 43.4294 33.1055 43.4294H18.1544C12.4588 43.4294 7.83105 38.8017 7.83105 33.106V18.1549C7.83105 15.417 8.91869 12.7912 10.8547 10.8552C12.7907 8.91918 15.4165 7.83154 18.1544 7.83154ZM17.7985 11.3913C16.099 11.3913 14.4692 12.0664 13.2676 13.2681C12.0659 14.4697 11.3908 16.0995 11.3908 17.7989V33.462C11.3908 37.004 14.2565 39.8696 17.7985 39.8696H33.4615C35.1609 39.8696 36.7907 39.1945 37.9924 37.9929C39.194 36.7912 39.8691 35.1614 39.8691 33.462V17.7989C39.8691 14.257 37.0035 11.3913 33.4615 11.3913H17.7985ZM34.9744 14.0612C35.5645 14.0612 36.1304 14.2956 36.5476 14.7128C36.9649 15.1301 37.1993 15.696 37.1993 16.286C37.1993 16.8761 36.9649 17.442 36.5476 17.8592C36.1304 18.2765 35.5645 18.5109 34.9744 18.5109C34.3843 18.5109 33.8184 18.2765 33.4012 17.8592C32.9839 17.442 32.7495 16.8761 32.7495 16.286C32.7495 15.696 32.9839 15.1301 33.4012 14.7128C33.8184 14.2956 34.3843 14.0612 34.9744 14.0612ZM25.63 16.731C27.9903 16.731 30.2539 17.6686 31.9228 19.3376C33.5918 21.0066 34.5294 23.2702 34.5294 25.6305C34.5294 27.9907 33.5918 30.2544 31.9228 31.9233C30.2539 33.5923 27.9903 34.5299 25.63 34.5299C23.2697 34.5299 21.0061 33.5923 19.3371 31.9233C17.6681 30.2544 16.7305 27.9907 16.7305 25.6305C16.7305 23.2702 17.6681 21.0066 19.3371 19.3376C21.0061 17.6686 23.2697 16.731 25.63 16.731ZM25.63 20.2908C24.2138 20.2908 22.8556 20.8534 21.8543 21.8547C20.8529 22.8561 20.2903 24.2143 20.2903 25.6305C20.2903 27.0466 20.8529 28.4048 21.8543 29.4062C22.8556 30.4076 24.2138 30.9701 25.63 30.9701C27.0461 30.9701 28.4043 30.4076 29.4057 29.4062C30.4071 28.4048 30.9697 27.0466 30.9697 25.6305C30.9697 24.2143 30.4071 22.8561 29.4057 21.8547C28.4043 20.8534 27.0461 20.2908 25.63 20.2908Z" fill="white"/>
</svg>
