<svg width="98" height="87" viewBox="0 0 98 87" fill="none" xmlns="http://www.w3.org/2000/svg">
<path d="M35 0H63V87H35V0Z" fill="#A87574"/>
<path d="M0 63V35H98V63H0Z" fill="#A87574"/>
<path d="M45.1375 11L47.7792 30.3778L59.4537 33.6876C65.3542 31.8793 71.8716 30.7491 75.6366 26.6482C77.171 24.9852 78.3574 22.6473 77.0761 20.5258L65.1644 20.8843L62.8548 15.7516H51.038C49.8199 13.861 47.4312 12.4482 45.1375 11ZM46.0391 34.4465C38.62 37.6433 28.6224 58.0673 28.3535 79.0887C22.9718 69.7082 24.4145 59.2944 27.8947 46.378C17.2501 54.7252 9.24913 80.784 29.5557 87H63.2344C63.2344 87 62.2378 83.5287 61.0039 82.334C58.9949 80.3965 53.3792 79.0726 53.3792 79.0726C57.7769 72.7435 58.6785 67.4963 59.4853 62.2974C60.1972 71.9524 65.9237 82.7699 68.5654 87H80.667C80.667 87 81.3947 84.4329 80.6986 83.5287C78.9744 81.3006 72.5835 81.6074 72.5835 81.6074C67.6638 64.2995 65.2593 39.5969 58.3463 37.498C54.9136 36.4485 49.7566 35.2214 46.0391 34.4465Z" fill="black"/>
<path d="M48.5358 29.2963C37.8696 54.6296 53.6378 40.2428 56.8842 41.0247L60.1306 29.7654L49.4638 26.9506L48.5358 29.2963Z" fill="black"/>
</svg>
