<svg width="53" height="52" viewBox="0 0 53 52" fill="none" xmlns="http://www.w3.org/2000/svg">
<rect x="0.782227" width="51.2609" height="51.2609" rx="11" fill="#A87574"/>
<path d="M18.9437 14.8983C18.5997 14.848 18.2488 14.9172 17.9497 15.0946H17.9238C17.2296 15.5018 16.604 16.0146 16.0709 16.618C15.6266 17.1308 15.386 17.6491 15.323 18.1489C15.286 18.445 15.3119 18.7449 15.3989 19.0281L15.4322 19.0466C15.932 20.5145 16.5836 21.9269 17.3796 23.256C18.4064 25.1225 19.6693 26.849 21.1373 28.3928L21.1817 28.4557L21.2521 28.5075L21.2946 28.5575L21.3465 28.602C22.8958 30.0742 24.6263 31.3431 26.4962 32.3782C28.6342 33.5425 29.9318 34.0923 30.7111 34.3218V34.3329C30.9388 34.4033 31.1461 34.4347 31.3553 34.4347C32.0193 34.3871 32.648 34.1171 33.1397 33.6684C33.7413 33.1353 34.2504 32.5077 34.6465 31.8099V31.7969C35.0186 31.0935 34.8927 30.4308 34.3559 29.981C33.2785 29.0377 32.1125 28.2009 30.874 27.482C30.0447 27.0322 29.2025 27.3043 28.8619 27.7597L28.1344 28.6778C27.7605 29.1332 27.083 29.0703 27.083 29.0703L27.0645 29.0814C22.0092 27.7912 20.6597 22.6729 20.6597 22.6729C20.6597 22.6729 20.5968 21.9769 21.0651 21.6215L21.9758 20.8885C22.4127 20.5331 22.7163 19.6927 22.2479 18.8634C21.5308 17.6258 20.6958 16.4604 19.7545 15.3833C19.5486 15.1304 19.2603 14.9581 18.94 14.8965M27.4865 12.6733C27.241 12.6733 27.0056 12.7709 26.8321 12.9444C26.6585 13.118 26.561 13.3534 26.561 13.5989C26.561 13.8444 26.6585 14.0798 26.8321 14.2533C27.0056 14.4269 27.241 14.5244 27.4865 14.5244C29.8263 14.5244 31.7699 15.2889 33.3082 16.755C34.0986 17.5565 34.715 18.5061 35.1186 19.5464C35.5239 20.5886 35.7091 21.7011 35.6609 22.8155C35.6506 23.0609 35.7382 23.3004 35.9045 23.4813C36.0708 23.6622 36.3021 23.7696 36.5476 23.7799C36.7931 23.7902 37.0326 23.7026 37.2134 23.5363C37.3943 23.37 37.5017 23.1387 37.512 22.8932C37.5672 21.5226 37.3398 20.1553 36.8438 18.8763C36.3455 17.5909 35.5867 16.4225 34.6151 15.4444L34.5965 15.4259C32.6881 13.6026 30.2743 12.6733 27.4865 12.6733Z" fill="white"/>
<path d="M27.4216 15.7167C27.1762 15.7167 26.9408 15.8142 26.7672 15.9878C26.5936 16.1614 26.4961 16.3968 26.4961 16.6422C26.4961 16.8877 26.5936 17.1231 26.7672 17.2967C26.9408 17.4703 27.1762 17.5678 27.4216 17.5678H27.4531C29.1413 17.6881 30.3704 18.2508 31.2312 19.1745C32.1141 20.126 32.5714 21.3088 32.5362 22.7712C32.5305 23.0167 32.6226 23.2543 32.7922 23.4319C32.9618 23.6094 33.195 23.7124 33.4405 23.718C33.6859 23.7237 33.9236 23.6316 34.1011 23.462C34.2787 23.2924 34.3816 23.0592 34.3873 22.8138C34.4317 20.8942 33.8134 19.2375 32.588 17.9158V17.9121C31.3348 16.5682 29.6152 15.8574 27.5457 15.7185L27.5142 15.7148L27.4216 15.7167Z" fill="white"/>
<path d="M27.3868 18.8171C27.2629 18.8061 27.1381 18.8203 27.0198 18.8586C26.9016 18.897 26.7922 18.9588 26.6984 19.0404C26.6045 19.1219 26.528 19.2216 26.4735 19.3333C26.419 19.4451 26.3876 19.5667 26.3811 19.6909C26.3747 19.815 26.3933 19.9392 26.4359 20.0561C26.4785 20.1729 26.5442 20.2799 26.629 20.3708C26.7139 20.4617 26.8162 20.5345 26.9299 20.585C27.0435 20.6354 27.1662 20.6624 27.2905 20.6644C28.0643 20.7052 28.5585 20.9384 28.8695 21.2512C29.1823 21.5659 29.4156 22.0713 29.4581 22.8617C29.4605 22.9859 29.4877 23.1084 29.5384 23.2218C29.589 23.3352 29.662 23.4373 29.7529 23.522C29.8439 23.6066 29.9509 23.6721 30.0677 23.7145C30.1844 23.7569 30.3086 23.7753 30.4326 23.7687C30.5567 23.7621 30.6781 23.7306 30.7897 23.6761C30.9014 23.6216 31.0009 23.5452 31.0823 23.4514C31.1638 23.3576 31.2255 23.2483 31.2639 23.1302C31.3022 23.012 31.3164 22.8873 31.3055 22.7636C31.2463 21.6529 30.8983 20.6718 30.1856 19.9499C29.4693 19.228 28.4937 18.8763 27.3868 18.8171Z" fill="white"/>
<path fill-rule="evenodd" clip-rule="evenodd" d="M17.2816 7.83077C23.1719 6.51409 29.2802 6.51409 35.1705 7.83077L35.798 7.9696C37.5195 8.35551 39.1004 9.21063 40.3655 10.4401C41.6306 11.6697 42.5305 13.2255 42.9654 14.9352C44.462 20.8269 44.462 26.9992 42.9654 32.8908C42.5305 34.6005 41.6306 36.1564 40.3655 37.3859C39.1004 38.6154 37.5195 39.4705 35.798 39.8564L35.1687 39.9953C31.4793 40.8191 27.6939 41.1299 23.9196 40.919L19.0087 45.3134C18.8235 45.4792 18.5973 45.5922 18.3535 45.6407C18.1098 45.6892 17.8575 45.6714 17.623 45.5892C17.3885 45.5069 17.1804 45.3632 17.0204 45.1731C16.8604 44.9829 16.7543 44.7533 16.7133 44.5082L15.9007 39.6547C14.3428 39.169 12.9354 38.2923 11.8126 37.1083C10.6897 35.9242 9.88897 34.4722 9.48666 32.8908C7.99012 26.9992 7.99012 20.8269 9.48666 14.9352C9.92156 13.2255 10.8215 11.6697 12.0866 10.4401C13.3517 9.21063 14.9326 8.35551 16.6541 7.9696L17.2816 7.83077ZM34.5652 10.5389C29.0735 9.31128 23.3786 9.31128 17.8869 10.5389L17.2575 10.6796C16.0376 10.9539 14.9174 11.5605 14.0209 12.4321C13.1244 13.3038 12.4866 14.4065 12.1781 15.6183C10.7954 21.0617 10.7954 26.7644 12.1781 32.2077C12.4867 33.4197 13.1248 34.5227 14.0216 35.3943C14.9185 36.266 16.0391 36.8724 17.2594 37.1464L17.426 37.1835C17.6955 37.2437 17.9409 37.383 18.1308 37.5835C18.3208 37.784 18.4466 38.0366 18.4922 38.3089L19.0364 41.5631L22.5017 38.4626C22.64 38.3384 22.802 38.2433 22.9778 38.1828C23.1536 38.1224 23.3398 38.098 23.5253 38.1109C27.2257 38.3721 30.9445 38.0947 34.5652 37.2871L35.1927 37.1464C36.413 36.8724 37.5336 36.266 38.4305 35.3943C39.3273 34.5227 39.9654 33.4197 40.274 32.2077C41.6549 26.7655 41.6549 21.0623 40.274 15.6183C39.9654 14.4063 39.3273 13.3034 38.4305 12.4317C37.5336 11.56 36.413 10.9536 35.1927 10.6796L34.5652 10.5389Z" fill="white"/>
</svg>
