<svg width="52" height="52" viewBox="0 0 52 52" fill="none" xmlns="http://www.w3.org/2000/svg">
<rect x="0.521484" width="51.2609" height="51.2609" rx="11" fill="#A87574"/>
<path d="M22.5917 30.9703L31.8293 25.6306L22.5917 20.291V30.9703ZM43.1672 17.0338C43.3986 17.8703 43.5588 18.9916 43.6656 20.4155C43.7902 21.8395 43.8436 23.0676 43.8436 24.1355L43.9504 25.6306C43.9504 29.5286 43.6656 32.3942 43.1672 34.2275C42.7223 35.8294 41.6899 36.8618 40.088 37.3067C39.2515 37.5381 37.7208 37.6983 35.3713 37.8051C33.0574 37.9297 30.9394 37.9831 28.9815 37.9831L26.1515 38.0899C18.6937 38.0899 14.0482 37.8051 12.2149 37.3067C10.613 36.8618 9.58066 35.8294 9.13569 34.2275C8.90431 33.391 8.74412 32.2696 8.63732 30.8457C8.51273 29.4218 8.45933 28.1937 8.45933 27.1257L8.35254 25.6306C8.35254 21.7327 8.63732 18.867 9.13569 17.0338C9.58066 15.4319 10.613 14.3995 12.2149 13.9545C13.0515 13.7232 14.5822 13.563 16.9316 13.4562C19.2455 13.3316 21.3636 13.2782 23.3214 13.2782L26.1515 13.1714C33.6092 13.1714 38.2547 13.4562 40.088 13.9545C41.6899 14.3995 42.7223 15.4319 43.1672 17.0338Z" fill="white"/>
</svg>
